<?xml version="1.0" standalone="no"?>
<!DOCTYPE svg PUBLIC "-//W3C//DTD SVG 20010904//EN"
 "http://www.w3.org/TR/2001/REC-SVG-20010904/DTD/svg10.dtd">
<svg version="1.0" xmlns="http://www.w3.org/2000/svg"
 width="300.000000pt" height="300.000000pt" viewBox="0 0 300.000000 300.000000"
 preserveAspectRatio="xMidYMid meet">
<metadata>
Created by potrace 1.10, written by Peter Selinger 2001-2011
</metadata>
<g transform="translate(0.000000,300.000000) scale(0.100000,-0.100000)"
fill="#000000" stroke="none">
<path d="M1997 2299 c-281 -36 -536 -266 -592 -534 -66 -315 72 -568 328 -604
122 -17 317 27 420 95 21 14 41 23 44 21 8 -9 -27 -236 -47 -300 -42 -135 -93
-172 -235 -172 -81 0 -95 3 -144 30 -43 24 -79 59 -107 103 -1 2 -31 -16 -66
-40 -35 -23 -65 -44 -67 -45 -10 -6 38 -47 79 -69 l45 -23 -612 -1 -613 0 0
-40 0 -40 1025 0 1025 0 0 40 0 40 -237 0 -238 1 60 32 c79 42 169 132 200
199 38 83 52 155 85 419 16 136 37 266 45 289 8 23 15 45 15 47 0 2 -103 3
-228 1 -255 -3 -252 -3 -313 -79 l-33 -42 29 7 c30 8 366 24 374 18 3 -1 -3
-67 -12 -145 -19 -160 -13 -149 -123 -203 -161 -78 -341 -57 -446 53 -78 81
-115 228 -98 388 28 262 167 435 384 479 125 26 270 -2 336 -64 26 -25 31 -36
29 -67 -3 -33 -1 -38 16 -35 11 2 23 7 27 10 9 10 99 185 95 187 -7 6 -152 37
-212 45 -81 11 -143 11 -238 -1z m313 -53 c72 -13 83 -27 54 -70 l-16 -26 -39
34 c-21 19 -52 42 -68 51 -56 28 -37 31 69 11z m-704 -213 c-64 -126 -88 -221
-88 -353 -1 -52 5 -122 11 -155 33 -155 160 -282 303 -301 26 -4 48 -11 48
-17 0 -6 -36 -8 -97 -5 -80 4 -108 10 -149 31 -69 35 -109 71 -141 124 -107
184 -71 487 78 656 47 54 55 58 35 20z m740 -355 c-8 -38 -28 -187 -51 -376
-19 -155 -44 -257 -74 -304 -23 -37 -25 -30 -11 39 6 26 14 86 19 133 7 70 5
90 -7 112 -15 26 -15 29 6 58 18 24 26 57 38 158 8 70 12 137 9 149 -6 27 -36
45 -90 54 -28 4 -9 7 64 8 l104 1 -7 -32z m-655 -833 c65 -58 114 -78 209 -83
80 -4 110 -13 110 -33 0 -5 -83 -9 -185 -9 -169 0 -207 5 -175 25 18 11 10 34
-22 66 l-33 31 24 19 c13 10 26 19 28 19 3 0 23 -16 44 -35z"/>
<path d="M1037 2268 c-207 -20 -392 -128 -460 -269 -44 -89 -52 -168 -31 -282
l6 -27 31 26 c18 15 51 43 74 64 l42 37 -21 43 c-26 53 -28 141 -5 187 38 73
147 120 301 130 l88 6 -6 -39 c-3 -21 -31 -239 -61 -484 -55 -440 -78 -567
-115 -639 -29 -58 -89 -106 -149 -121 -134 -32 -269 36 -302 152 -7 24 -14 44
-15 46 -1 2 -91 -57 -142 -94 -8 -6 61 -95 91 -119 143 -108 416 -67 568 85
110 110 156 243 194 570 37 319 71 558 89 639 l22 100 -65 -2 c-36 -1 -97 -5
-134 -9z m138 -48 c3 -5 -3 -58 -15 -117 -16 -87 -65 -453 -96 -723 -13 -110
-80 -304 -111 -323 -6 -4 -2 28 7 71 16 66 39 225 56 382 2 25 7 59 9 75 2 17
7 50 10 75 3 25 16 134 30 244 31 242 31 266 4 300 l-20 26 60 0 c33 0 63 -4
66 -10z m-535 -392 c0 -18 -46 -55 -56 -45 -10 10 -6 107 7 144 l13 38 18 -60
c10 -33 18 -68 18 -77z m-226 -837 c8 -15 38 -49 67 -75 48 -43 50 -46 25 -46
-40 0 -112 38 -146 77 -30 33 -30 36 -14 54 25 27 51 23 68 -10z"/>
</g>
</svg>
